<svg width="180" height="41" viewBox="0 0 180 41" fill="none" xmlns="http://www.w3.org/2000/svg">
<path d="M0.15 40V5H16.05C19.85 5 23.2 5.73333 26.1 7.2C29 8.63333 31.2667 10.65 32.9 13.25C34.5333 15.85 35.35 18.9333 35.35 22.5C35.35 26.0333 34.5333 29.1167 32.9 31.75C31.2667 34.35 29 36.3833 26.1 37.85C23.2 39.2833 19.85 40 16.05 40H0.15ZM8.25 33.35H15.65C17.9833 33.35 20 32.9167 21.7 32.05C23.4333 31.15 24.7667 29.8833 25.7 28.25C26.6667 26.6167 27.15 24.7 27.15 22.5C27.15 20.2667 26.6667 18.35 25.7 16.75C24.7667 15.1167 23.4333 13.8667 21.7 13C20 12.1 17.9833 11.65 15.65 11.65H8.25V33.35ZM40.9086 40V13.1H48.3586V20.7L47.3086 18.5C48.1086 16.6 49.3919 15.1667 51.1586 14.2C52.9253 13.2 55.0753 12.7 57.6086 12.7V19.9C57.2753 19.8667 56.9753 19.85 56.7086 19.85C56.4419 19.8167 56.1586 19.8 55.8586 19.8C53.7253 19.8 51.9919 20.4167 50.6586 21.65C49.3586 22.85 48.7086 24.7333 48.7086 27.3V40H40.9086ZM76.9887 40V34.75L76.4887 33.6V24.2C76.4887 22.5333 75.972 21.2333 74.9387 20.3C73.9387 19.3667 72.3887 18.9 70.2887 18.9C68.8553 18.9 67.4387 19.1333 66.0387 19.6C64.672 20.0333 63.5053 20.6333 62.5387 21.4L59.7387 15.95C61.2053 14.9167 62.972 14.1167 65.0387 13.55C67.1053 12.9833 69.2053 12.7 71.3387 12.7C75.4387 12.7 78.622 13.6667 80.8887 15.6C83.1553 17.5333 84.2887 20.55 84.2887 24.65V40H76.9887ZM68.7887 40.4C66.6887 40.4 64.8887 40.05 63.3887 39.35C61.8887 38.6167 60.7387 37.6333 59.9387 36.4C59.1387 35.1667 58.7387 33.7833 58.7387 32.25C58.7387 30.65 59.122 29.25 59.8887 28.05C60.6887 26.85 61.9387 25.9167 63.6387 25.25C65.3387 24.55 67.5553 24.2 70.2887 24.2H77.4387V28.75H71.1387C69.3053 28.75 68.0387 29.05 67.3387 29.65C66.672 30.25 66.3387 31 66.3387 31.9C66.3387 32.9 66.722 33.7 67.4887 34.3C68.2887 34.8667 69.372 35.15 70.7387 35.15C72.0387 35.15 73.2053 34.85 74.2387 34.25C75.272 33.6167 76.022 32.7 76.4887 31.5L77.6887 35.1C77.122 36.8333 76.0887 38.15 74.5887 39.05C73.0887 39.95 71.1553 40.4 68.7887 40.4ZM97.798 34.5L97.998 25L110.548 13.1H119.848L107.798 25.35L103.748 28.65L97.798 34.5ZM91.348 40V2.9H99.148V40H91.348ZM111.398 40L102.298 28.7L107.198 22.65L120.848 40H111.398ZM136.583 40.4C133.516 40.4 130.816 39.8 128.483 38.6C126.183 37.4 124.399 35.7667 123.133 33.7C121.866 31.6 121.233 29.2167 121.233 26.55C121.233 23.85 121.849 21.4667 123.083 19.4C124.349 17.3 126.066 15.6667 128.233 14.5C130.399 13.3 132.849 12.7 135.583 12.7C138.216 12.7 140.583 13.2667 142.683 14.4C144.816 15.5 146.499 17.1 147.733 19.2C148.966 21.2667 149.583 23.75 149.583 26.65C149.583 26.95 149.566 27.3 149.533 27.7C149.499 28.0667 149.466 28.4167 149.433 28.75H127.583V24.2H145.333L142.333 25.55C142.333 24.15 142.049 22.9333 141.483 21.9C140.916 20.8667 140.133 20.0667 139.133 19.5C138.133 18.9 136.966 18.6 135.633 18.6C134.299 18.6 133.116 18.9 132.083 19.5C131.083 20.0667 130.299 20.8833 129.733 21.95C129.166 22.9833 128.883 24.2167 128.883 25.65V26.85C128.883 28.3167 129.199 29.6167 129.833 30.75C130.499 31.85 131.416 32.7 132.583 33.3C133.783 33.8667 135.183 34.15 136.783 34.15C138.216 34.15 139.466 33.9333 140.533 33.5C141.633 33.0667 142.633 32.4167 143.533 31.55L147.683 36.05C146.449 37.45 144.899 38.5333 143.033 39.3C141.166 40.0333 139.016 40.4 136.583 40.4ZM162.066 19.23V7.35H166.146C168.046 7.35 169.526 7.84 170.586 8.82C171.646 9.78 172.176 11.19 172.176 13.05C172.176 15.09 171.606 16.63 170.466 17.67C169.326 18.71 167.796 19.23 165.876 19.23H162.066ZM164.976 16.86H165.876C166.996 16.86 167.816 16.56 168.336 15.96C168.856 15.34 169.116 14.4 169.116 13.14C169.116 10.82 168.116 9.66 166.116 9.66H164.976V16.86ZM166.176 26.46C164.356 26.46 162.646 26.12 161.046 25.44C159.466 24.76 158.066 23.82 156.846 22.62C155.646 21.4 154.706 20 154.026 18.42C153.346 16.82 153.006 15.11 153.006 13.29C153.006 11.47 153.346 9.77 154.026 8.19C154.706 6.59 155.646 5.19 156.846 3.99C158.066 2.77 159.466 1.82 161.046 1.14C162.646 0.459997 164.356 0.119997 166.176 0.119997C168.016 0.119997 169.726 0.459997 171.306 1.14C172.886 1.82 174.276 2.77 175.476 3.99C176.696 5.19 177.646 6.58 178.326 8.16C179.006 9.74 179.346 11.45 179.346 13.29C179.346 15.11 179.006 16.82 178.326 18.42C177.646 20 176.696 21.4 175.476 22.62C174.276 23.82 172.876 24.76 171.276 25.44C169.696 26.12 167.996 26.46 166.176 26.46ZM166.176 23.49C167.596 23.49 168.916 23.23 170.136 22.71C171.376 22.19 172.466 21.46 173.406 20.52C174.346 19.58 175.076 18.5 175.596 17.28C176.116 16.04 176.376 14.71 176.376 13.29C176.376 11.87 176.116 10.55 175.596 9.33C175.076 8.09 174.346 7 173.406 6.06C172.466 5.12 171.376 4.39 170.136 3.87C168.916 3.35 167.596 3.09 166.176 3.09C164.756 3.09 163.426 3.35 162.186 3.87C160.966 4.39 159.886 5.12 158.946 6.06C158.006 7 157.276 8.09 156.756 9.33C156.236 10.55 155.976 11.87 155.976 13.29C155.976 14.71 156.236 16.04 156.756 17.28C157.276 18.5 158.006 19.58 158.946 20.52C159.886 21.46 160.966 22.19 162.186 22.71C163.426 23.23 164.756 23.49 166.176 23.49Z" fill="#DAC5A7"/>
</svg>
