<svg width="39" height="673" viewBox="0 0 39 673" fill="none" xmlns="http://www.w3.org/2000/svg">
<rect width="5" height="673" transform="matrix(-1 0 0 1 39 0)" fill="#DAC5A7"/>
<rect width="26" height="5" transform="matrix(-1 0 0 1 36 91)" fill="#DAC5A7"/>
<circle cx="7.5" cy="7.5" r="7.5" transform="matrix(-1 0 0 1 15 86)" fill="#DAC5A7"/>
<rect width="26" height="5" transform="matrix(-1 0 0 1 36 328)" fill="#DAC5A7"/>
<circle cx="7.5" cy="7.5" r="7.5" transform="matrix(-1 0 0 1 15 323)" fill="#DAC5A7"/>
<rect width="26" height="5" transform="matrix(-1 0 0 1 36 571)" fill="#DAC5A7"/>
<circle cx="7.5" cy="7.5" r="7.5" transform="matrix(-1 0 0 1 15 566)" fill="#DAC5A7"/>
</svg>
