<svg width="124" height="71" viewBox="0 0 124 71" fill="none" xmlns="http://www.w3.org/2000/svg">
<path d="M1.66878 3.33757C2.59043 3.33757 3.33757 2.59043 3.33757 1.66878C3.33757 0.747135 2.59043 0 1.66878 0C0.747135 0 0 0.747135 0 1.66878C0 2.59043 0.747135 3.33757 1.66878 3.33757Z" fill="#DAC5A7"/>
<path d="M12.5562 3.33757C13.4779 3.33757 14.225 2.59043 14.225 1.66878C14.225 0.747135 13.4779 0 12.5562 0C11.6346 0 10.8875 0.747135 10.8875 1.66878C10.8875 2.59043 11.6346 3.33757 12.5562 3.33757Z" fill="#DAC5A7"/>
<path d="M23.4437 3.33757C24.3653 3.33757 25.1125 2.59043 25.1125 1.66878C25.1125 0.747135 24.3653 0 23.4437 0C22.522 0 21.7749 0.747135 21.7749 1.66878C21.7749 2.59043 22.522 3.33757 23.4437 3.33757Z" fill="#DAC5A7"/>
<path d="M34.3311 3.33757C35.2528 3.33757 35.9999 2.59043 35.9999 1.66878C35.9999 0.747135 35.2528 0 34.3311 0C33.4095 0 32.6624 0.747135 32.6624 1.66878C32.6624 2.59043 33.4095 3.33757 34.3311 3.33757Z" fill="#DAC5A7"/>
<path d="M1.66878 12.79C2.59043 12.79 3.33757 12.0428 3.33757 11.1212C3.33757 10.1995 2.59043 9.45239 1.66878 9.45239C0.747135 9.45239 0 10.1995 0 11.1212C0 12.0428 0.747135 12.79 1.66878 12.79Z" fill="#DAC5A7"/>
<path d="M12.5562 12.79C13.4779 12.79 14.225 12.0428 14.225 11.1212C14.225 10.1995 13.4779 9.45239 12.5562 9.45239C11.6346 9.45239 10.8875 10.1995 10.8875 11.1212C10.8875 12.0428 11.6346 12.79 12.5562 12.79Z" fill="#DAC5A7"/>
<path d="M23.4437 12.79C24.3653 12.79 25.1125 12.0428 25.1125 11.1212C25.1125 10.1995 24.3653 9.45239 23.4437 9.45239C22.522 9.45239 21.7749 10.1995 21.7749 11.1212C21.7749 12.0428 22.522 12.79 23.4437 12.79Z" fill="#DAC5A7"/>
<path d="M34.3311 12.79C35.2528 12.79 35.9999 12.0428 35.9999 11.1212C35.9999 10.1995 35.2528 9.45239 34.3311 9.45239C33.4095 9.45239 32.6624 10.1995 32.6624 11.1212C32.6624 12.0428 33.4095 12.79 34.3311 12.79Z" fill="#DAC5A7"/>
<path d="M1.66878 22.2424C2.59043 22.2424 3.33757 21.4953 3.33757 20.5736C3.33757 19.652 2.59043 18.9048 1.66878 18.9048C0.747135 18.9048 0 19.652 0 20.5736C0 21.4953 0.747135 22.2424 1.66878 22.2424Z" fill="#DAC5A7"/>
<path d="M12.5562 22.2424C13.4779 22.2424 14.225 21.4953 14.225 20.5736C14.225 19.652 13.4779 18.9048 12.5562 18.9048C11.6346 18.9048 10.8875 19.652 10.8875 20.5736C10.8875 21.4953 11.6346 22.2424 12.5562 22.2424Z" fill="#DAC5A7"/>
<path d="M23.4437 22.2424C24.3653 22.2424 25.1125 21.4953 25.1125 20.5736C25.1125 19.652 24.3653 18.9048 23.4437 18.9048C22.522 18.9048 21.7749 19.652 21.7749 20.5736C21.7749 21.4953 22.522 22.2424 23.4437 22.2424Z" fill="#DAC5A7"/>
<path d="M34.3311 22.2424C35.2528 22.2424 35.9999 21.4953 35.9999 20.5736C35.9999 19.652 35.2528 18.9048 34.3311 18.9048C33.4095 18.9048 32.6624 19.652 32.6624 20.5736C32.6624 21.4953 33.4095 22.2424 34.3311 22.2424Z" fill="#DAC5A7"/>
<path d="M1.66878 31.6908C2.59043 31.6908 3.33757 30.9437 3.33757 30.022C3.33757 29.1004 2.59043 28.3532 1.66878 28.3532C0.747135 28.3532 0 29.1004 0 30.022C0 30.9437 0.747135 31.6908 1.66878 31.6908Z" fill="#DAC5A7"/>
<path d="M12.5562 31.6908C13.4779 31.6908 14.225 30.9437 14.225 30.022C14.225 29.1004 13.4779 28.3532 12.5562 28.3532C11.6346 28.3532 10.8875 29.1004 10.8875 30.022C10.8875 30.9437 11.6346 31.6908 12.5562 31.6908Z" fill="#DAC5A7"/>
<path d="M23.4437 31.6908C24.3653 31.6908 25.1125 30.9437 25.1125 30.022C25.1125 29.1004 24.3653 28.3532 23.4437 28.3532C22.522 28.3532 21.7749 29.1004 21.7749 30.022C21.7749 30.9437 22.522 31.6908 23.4437 31.6908Z" fill="#DAC5A7"/>
<path d="M34.3311 31.6908C35.2528 31.6908 35.9999 30.9437 35.9999 30.022C35.9999 29.1004 35.2528 28.3532 34.3311 28.3532C33.4095 28.3532 32.6624 29.1004 32.6624 30.022C32.6624 30.9437 33.4095 31.6908 34.3311 31.6908Z" fill="#DAC5A7"/>
<path d="M1.66878 42.6468C2.59043 42.6468 3.33757 41.8996 3.33757 40.978C3.33757 40.0563 2.59043 39.3092 1.66878 39.3092C0.747135 39.3092 0 40.0563 0 40.978C0 41.8996 0.747135 42.6468 1.66878 42.6468Z" fill="#DAC5A7"/>
<path d="M12.5562 42.6468C13.4779 42.6468 14.225 41.8996 14.225 40.978C14.225 40.0563 13.4779 39.3092 12.5562 39.3092C11.6346 39.3092 10.8875 40.0563 10.8875 40.978C10.8875 41.8996 11.6346 42.6468 12.5562 42.6468Z" fill="#DAC5A7"/>
<path d="M23.4437 42.6468C24.3653 42.6468 25.1125 41.8996 25.1125 40.978C25.1125 40.0563 24.3653 39.3092 23.4437 39.3092C22.522 39.3092 21.7749 40.0563 21.7749 40.978C21.7749 41.8996 22.522 42.6468 23.4437 42.6468Z" fill="#DAC5A7"/>
<path d="M34.3311 42.6468C35.2528 42.6468 35.9999 41.8996 35.9999 40.978C35.9999 40.0563 35.2528 39.3092 34.3311 39.3092C33.4095 39.3092 32.6624 40.0563 32.6624 40.978C32.6624 41.8996 33.4095 42.6468 34.3311 42.6468Z" fill="#DAC5A7"/>
<path d="M1.66878 52.0992C2.59043 52.0992 3.33757 51.3521 3.33757 50.4304C3.33757 49.5088 2.59043 48.7616 1.66878 48.7616C0.747135 48.7616 0 49.5088 0 50.4304C0 51.3521 0.747135 52.0992 1.66878 52.0992Z" fill="#DAC5A7"/>
<path d="M12.5562 52.0992C13.4779 52.0992 14.225 51.3521 14.225 50.4304C14.225 49.5088 13.4779 48.7616 12.5562 48.7616C11.6346 48.7616 10.8875 49.5088 10.8875 50.4304C10.8875 51.3521 11.6346 52.0992 12.5562 52.0992Z" fill="#DAC5A7"/>
<path d="M23.4437 52.0992C24.3653 52.0992 25.1125 51.3521 25.1125 50.4304C25.1125 49.5088 24.3653 48.7616 23.4437 48.7616C22.522 48.7616 21.7749 49.5088 21.7749 50.4304C21.7749 51.3521 22.522 52.0992 23.4437 52.0992Z" fill="#DAC5A7"/>
<path d="M34.3311 52.0992C35.2528 52.0992 35.9999 51.3521 35.9999 50.4304C35.9999 49.5088 35.2528 48.7616 34.3311 48.7616C33.4095 48.7616 32.6624 49.5088 32.6624 50.4304C32.6624 51.3521 33.4095 52.0992 34.3311 52.0992Z" fill="#DAC5A7"/>
<path d="M1.66878 61.5516C2.59043 61.5516 3.33757 60.8045 3.33757 59.8828C3.33757 58.9612 2.59043 58.2141 1.66878 58.2141C0.747135 58.2141 0 58.9612 0 59.8828C0 60.8045 0.747135 61.5516 1.66878 61.5516Z" fill="#DAC5A7"/>
<path d="M12.5562 61.5516C13.4779 61.5516 14.225 60.8045 14.225 59.8828C14.225 58.9612 13.4779 58.2141 12.5562 58.2141C11.6346 58.2141 10.8875 58.9612 10.8875 59.8828C10.8875 60.8045 11.6346 61.5516 12.5562 61.5516Z" fill="#DAC5A7"/>
<path d="M23.4437 61.5516C24.3653 61.5516 25.1125 60.8045 25.1125 59.8828C25.1125 58.9612 24.3653 58.2141 23.4437 58.2141C22.522 58.2141 21.7749 58.9612 21.7749 59.8828C21.7749 60.8045 22.522 61.5516 23.4437 61.5516Z" fill="#DAC5A7"/>
<path d="M34.3311 61.5516C35.2528 61.5516 35.9999 60.8045 35.9999 59.8828C35.9999 58.9612 35.2528 58.2141 34.3311 58.2141C33.4095 58.2141 32.6624 58.9612 32.6624 59.8828C32.6624 60.8045 33.4095 61.5516 34.3311 61.5516Z" fill="#DAC5A7"/>
<path d="M1.66878 71C2.59043 71 3.33757 70.2529 3.33757 69.3312C3.33757 68.4096 2.59043 67.6624 1.66878 67.6624C0.747135 67.6624 0 68.4096 0 69.3312C0 70.2529 0.747135 71 1.66878 71Z" fill="#DAC5A7"/>
<path d="M12.5562 71C13.4779 71 14.225 70.2529 14.225 69.3312C14.225 68.4096 13.4779 67.6624 12.5562 67.6624C11.6346 67.6624 10.8875 68.4096 10.8875 69.3312C10.8875 70.2529 11.6346 71 12.5562 71Z" fill="#DAC5A7"/>
<path d="M23.4437 71C24.3653 71 25.1125 70.2529 25.1125 69.3312C25.1125 68.4096 24.3653 67.6624 23.4437 67.6624C22.522 67.6624 21.7749 68.4096 21.7749 69.3312C21.7749 70.2529 22.522 71 23.4437 71Z" fill="#DAC5A7"/>
<path d="M34.3311 71C35.2528 71 35.9999 70.2529 35.9999 69.3312C35.9999 68.4096 35.2528 67.6624 34.3311 67.6624C33.4095 67.6624 32.6624 68.4096 32.6624 69.3312C32.6624 70.2529 33.4095 71 34.3311 71Z" fill="#DAC5A7"/>
<path d="M45.2869 3.33757C46.2086 3.33757 46.9557 2.59043 46.9557 1.66878C46.9557 0.747135 46.2086 0 45.2869 0C44.3653 0 43.6182 0.747135 43.6182 1.66878C43.6182 2.59043 44.3653 3.33757 45.2869 3.33757Z" fill="#DAC5A7"/>
<path d="M56.1744 3.33757C57.0961 3.33757 57.8432 2.59043 57.8432 1.66878C57.8432 0.747135 57.0961 0 56.1744 0C55.2528 0 54.5056 0.747135 54.5056 1.66878C54.5056 2.59043 55.2528 3.33757 56.1744 3.33757Z" fill="#DAC5A7"/>
<path d="M67.0619 3.33757C67.9835 3.33757 68.7306 2.59043 68.7306 1.66878C68.7306 0.747135 67.9835 0 67.0619 0C66.1402 0 65.3931 0.747135 65.3931 1.66878C65.3931 2.59043 66.1402 3.33757 67.0619 3.33757Z" fill="#DAC5A7"/>
<path d="M77.9493 3.33757C78.8709 3.33757 79.6181 2.59043 79.6181 1.66878C79.6181 0.747135 78.8709 0 77.9493 0C77.0277 0 76.2805 0.747135 76.2805 1.66878C76.2805 2.59043 77.0277 3.33757 77.9493 3.33757Z" fill="#DAC5A7"/>
<path d="M45.2869 12.79C46.2086 12.79 46.9557 12.0428 46.9557 11.1212C46.9557 10.1995 46.2086 9.45239 45.2869 9.45239C44.3653 9.45239 43.6182 10.1995 43.6182 11.1212C43.6182 12.0428 44.3653 12.79 45.2869 12.79Z" fill="#DAC5A7"/>
<path d="M56.1744 12.79C57.0961 12.79 57.8432 12.0428 57.8432 11.1212C57.8432 10.1995 57.0961 9.45239 56.1744 9.45239C55.2528 9.45239 54.5056 10.1995 54.5056 11.1212C54.5056 12.0428 55.2528 12.79 56.1744 12.79Z" fill="#DAC5A7"/>
<path d="M67.0619 12.79C67.9835 12.79 68.7306 12.0428 68.7306 11.1212C68.7306 10.1995 67.9835 9.45239 67.0619 9.45239C66.1402 9.45239 65.3931 10.1995 65.3931 11.1212C65.3931 12.0428 66.1402 12.79 67.0619 12.79Z" fill="#DAC5A7"/>
<path d="M77.9493 12.79C78.8709 12.79 79.6181 12.0428 79.6181 11.1212C79.6181 10.1995 78.8709 9.45239 77.9493 9.45239C77.0277 9.45239 76.2805 10.1995 76.2805 11.1212C76.2805 12.0428 77.0277 12.79 77.9493 12.79Z" fill="#DAC5A7"/>
<path d="M45.2869 22.2424C46.2086 22.2424 46.9557 21.4953 46.9557 20.5736C46.9557 19.652 46.2086 18.9048 45.2869 18.9048C44.3653 18.9048 43.6182 19.652 43.6182 20.5736C43.6182 21.4953 44.3653 22.2424 45.2869 22.2424Z" fill="#DAC5A7"/>
<path d="M56.1744 22.2424C57.0961 22.2424 57.8432 21.4953 57.8432 20.5736C57.8432 19.652 57.0961 18.9048 56.1744 18.9048C55.2528 18.9048 54.5056 19.652 54.5056 20.5736C54.5056 21.4953 55.2528 22.2424 56.1744 22.2424Z" fill="#DAC5A7"/>
<path d="M67.0619 22.2424C67.9835 22.2424 68.7306 21.4953 68.7306 20.5736C68.7306 19.652 67.9835 18.9048 67.0619 18.9048C66.1402 18.9048 65.3931 19.652 65.3931 20.5736C65.3931 21.4953 66.1402 22.2424 67.0619 22.2424Z" fill="#DAC5A7"/>
<path d="M77.9493 22.2424C78.8709 22.2424 79.6181 21.4953 79.6181 20.5736C79.6181 19.652 78.8709 18.9048 77.9493 18.9048C77.0277 18.9048 76.2805 19.652 76.2805 20.5736C76.2805 21.4953 77.0277 22.2424 77.9493 22.2424Z" fill="#DAC5A7"/>
<path d="M45.2869 31.6908C46.2086 31.6908 46.9557 30.9437 46.9557 30.022C46.9557 29.1004 46.2086 28.3532 45.2869 28.3532C44.3653 28.3532 43.6182 29.1004 43.6182 30.022C43.6182 30.9437 44.3653 31.6908 45.2869 31.6908Z" fill="#DAC5A7"/>
<path d="M56.1744 31.6908C57.0961 31.6908 57.8432 30.9437 57.8432 30.022C57.8432 29.1004 57.0961 28.3532 56.1744 28.3532C55.2528 28.3532 54.5056 29.1004 54.5056 30.022C54.5056 30.9437 55.2528 31.6908 56.1744 31.6908Z" fill="#DAC5A7"/>
<path d="M67.0619 31.6908C67.9835 31.6908 68.7306 30.9437 68.7306 30.022C68.7306 29.1004 67.9835 28.3532 67.0619 28.3532C66.1402 28.3532 65.3931 29.1004 65.3931 30.022C65.3931 30.9437 66.1402 31.6908 67.0619 31.6908Z" fill="#DAC5A7"/>
<path d="M77.9493 31.6908C78.8709 31.6908 79.6181 30.9437 79.6181 30.022C79.6181 29.1004 78.8709 28.3532 77.9493 28.3532C77.0277 28.3532 76.2805 29.1004 76.2805 30.022C76.2805 30.9437 77.0277 31.6908 77.9493 31.6908Z" fill="#DAC5A7"/>
<path d="M88.8206 3.33757C89.7423 3.33757 90.4894 2.59043 90.4894 1.66878C90.4894 0.747135 89.7423 0 88.8206 0C87.899 0 87.1519 0.747135 87.1519 1.66878C87.1519 2.59043 87.899 3.33757 88.8206 3.33757Z" fill="#DAC5A7"/>
<path d="M99.7081 3.33757C100.63 3.33757 101.377 2.59043 101.377 1.66878C101.377 0.747135 100.63 0 99.7081 0C98.7865 0 98.0393 0.747135 98.0393 1.66878C98.0393 2.59043 98.7865 3.33757 99.7081 3.33757Z" fill="#DAC5A7"/>
<path d="M110.595 3.33757C111.517 3.33757 112.264 2.59043 112.264 1.66878C112.264 0.747135 111.517 0 110.595 0C109.674 0 108.927 0.747135 108.927 1.66878C108.927 2.59043 109.674 3.33757 110.595 3.33757Z" fill="#DAC5A7"/>
<path d="M121.483 3.33757C122.405 3.33757 123.152 2.59043 123.152 1.66878C123.152 0.747135 122.405 0 121.483 0C120.561 0 119.814 0.747135 119.814 1.66878C119.814 2.59043 120.561 3.33757 121.483 3.33757Z" fill="#DAC5A7"/>
<path d="M88.8206 12.79C89.7423 12.79 90.4894 12.0428 90.4894 11.1212C90.4894 10.1995 89.7423 9.45239 88.8206 9.45239C87.899 9.45239 87.1519 10.1995 87.1519 11.1212C87.1519 12.0428 87.899 12.79 88.8206 12.79Z" fill="#DAC5A7"/>
<path d="M99.7081 12.79C100.63 12.79 101.377 12.0428 101.377 11.1212C101.377 10.1995 100.63 9.45239 99.7081 9.45239C98.7865 9.45239 98.0393 10.1995 98.0393 11.1212C98.0393 12.0428 98.7865 12.79 99.7081 12.79Z" fill="#DAC5A7"/>
<path d="M110.595 12.79C111.517 12.79 112.264 12.0428 112.264 11.1212C112.264 10.1995 111.517 9.45239 110.595 9.45239C109.674 9.45239 108.927 10.1995 108.927 11.1212C108.927 12.0428 109.674 12.79 110.595 12.79Z" fill="#DAC5A7"/>
<path d="M121.483 12.79C122.405 12.79 123.152 12.0428 123.152 11.1212C123.152 10.1995 122.405 9.45239 121.483 9.45239C120.561 9.45239 119.814 10.1995 119.814 11.1212C119.814 12.0428 120.561 12.79 121.483 12.79Z" fill="#DAC5A7"/>
<path d="M88.8206 22.2424C89.7423 22.2424 90.4894 21.4953 90.4894 20.5736C90.4894 19.652 89.7423 18.9048 88.8206 18.9048C87.899 18.9048 87.1519 19.652 87.1519 20.5736C87.1519 21.4953 87.899 22.2424 88.8206 22.2424Z" fill="#DAC5A7"/>
<path d="M99.7081 22.2424C100.63 22.2424 101.377 21.4953 101.377 20.5736C101.377 19.652 100.63 18.9048 99.7081 18.9048C98.7865 18.9048 98.0393 19.652 98.0393 20.5736C98.0393 21.4953 98.7865 22.2424 99.7081 22.2424Z" fill="#DAC5A7"/>
<path d="M110.595 22.2424C111.517 22.2424 112.264 21.4953 112.264 20.5736C112.264 19.652 111.517 18.9048 110.595 18.9048C109.674 18.9048 108.927 19.652 108.927 20.5736C108.927 21.4953 109.674 22.2424 110.595 22.2424Z" fill="#DAC5A7"/>
<path d="M121.483 22.2424C122.405 22.2424 123.152 21.4953 123.152 20.5736C123.152 19.652 122.405 18.9048 121.483 18.9048C120.561 18.9048 119.814 19.652 119.814 20.5736C119.814 21.4953 120.561 22.2424 121.483 22.2424Z" fill="#DAC5A7"/>
<path d="M88.8206 31.6908C89.7423 31.6908 90.4894 30.9437 90.4894 30.022C90.4894 29.1004 89.7423 28.3532 88.8206 28.3532C87.899 28.3532 87.1519 29.1004 87.1519 30.022C87.1519 30.9437 87.899 31.6908 88.8206 31.6908Z" fill="#DAC5A7"/>
<path d="M99.7081 31.6908C100.63 31.6908 101.377 30.9437 101.377 30.022C101.377 29.1004 100.63 28.3532 99.7081 28.3532C98.7865 28.3532 98.0393 29.1004 98.0393 30.022C98.0393 30.9437 98.7865 31.6908 99.7081 31.6908Z" fill="#DAC5A7"/>
<path d="M110.595 31.6908C111.517 31.6908 112.264 30.9437 112.264 30.022C112.264 29.1004 111.517 28.3532 110.595 28.3532C109.674 28.3532 108.927 29.1004 108.927 30.022C108.927 30.9437 109.674 31.6908 110.595 31.6908Z" fill="#DAC5A7"/>
<path d="M121.483 31.6908C122.405 31.6908 123.152 30.9437 123.152 30.022C123.152 29.1004 122.405 28.3532 121.483 28.3532C120.561 28.3532 119.814 29.1004 119.814 30.022C119.814 30.9437 120.561 31.6908 121.483 31.6908Z" fill="#DAC5A7"/>
<path d="M45.2869 42.6468C46.2086 42.6468 46.9557 41.8996 46.9557 40.978C46.9557 40.0563 46.2086 39.3092 45.2869 39.3092C44.3653 39.3092 43.6182 40.0563 43.6182 40.978C43.6182 41.8996 44.3653 42.6468 45.2869 42.6468Z" fill="#DAC5A7"/>
<path d="M56.1744 42.6468C57.0961 42.6468 57.8432 41.8996 57.8432 40.978C57.8432 40.0563 57.0961 39.3092 56.1744 39.3092C55.2528 39.3092 54.5056 40.0563 54.5056 40.978C54.5056 41.8996 55.2528 42.6468 56.1744 42.6468Z" fill="#DAC5A7"/>
<path d="M67.0619 42.6468C67.9835 42.6468 68.7306 41.8996 68.7306 40.978C68.7306 40.0563 67.9835 39.3092 67.0619 39.3092C66.1402 39.3092 65.3931 40.0563 65.3931 40.978C65.3931 41.8996 66.1402 42.6468 67.0619 42.6468Z" fill="#DAC5A7"/>
<path d="M77.9493 42.6468C78.8709 42.6468 79.6181 41.8996 79.6181 40.978C79.6181 40.0563 78.8709 39.3092 77.9493 39.3092C77.0277 39.3092 76.2805 40.0563 76.2805 40.978C76.2805 41.8996 77.0277 42.6468 77.9493 42.6468Z" fill="#DAC5A7"/>
<path d="M45.2869 52.0992C46.2086 52.0992 46.9557 51.3521 46.9557 50.4304C46.9557 49.5088 46.2086 48.7616 45.2869 48.7616C44.3653 48.7616 43.6182 49.5088 43.6182 50.4304C43.6182 51.3521 44.3653 52.0992 45.2869 52.0992Z" fill="#DAC5A7"/>
<path d="M56.1744 52.0992C57.0961 52.0992 57.8432 51.3521 57.8432 50.4304C57.8432 49.5088 57.0961 48.7616 56.1744 48.7616C55.2528 48.7616 54.5056 49.5088 54.5056 50.4304C54.5056 51.3521 55.2528 52.0992 56.1744 52.0992Z" fill="#DAC5A7"/>
<path d="M67.0619 52.0992C67.9835 52.0992 68.7306 51.3521 68.7306 50.4304C68.7306 49.5088 67.9835 48.7616 67.0619 48.7616C66.1402 48.7616 65.3931 49.5088 65.3931 50.4304C65.3931 51.3521 66.1402 52.0992 67.0619 52.0992Z" fill="#DAC5A7"/>
<path d="M77.9493 52.0992C78.8709 52.0992 79.6181 51.3521 79.6181 50.4304C79.6181 49.5088 78.8709 48.7616 77.9493 48.7616C77.0277 48.7616 76.2805 49.5088 76.2805 50.4304C76.2805 51.3521 77.0277 52.0992 77.9493 52.0992Z" fill="#DAC5A7"/>
<path d="M45.2869 61.5516C46.2086 61.5516 46.9557 60.8045 46.9557 59.8828C46.9557 58.9612 46.2086 58.2141 45.2869 58.2141C44.3653 58.2141 43.6182 58.9612 43.6182 59.8828C43.6182 60.8045 44.3653 61.5516 45.2869 61.5516Z" fill="#DAC5A7"/>
<path d="M56.1744 61.5516C57.0961 61.5516 57.8432 60.8045 57.8432 59.8828C57.8432 58.9612 57.0961 58.2141 56.1744 58.2141C55.2528 58.2141 54.5056 58.9612 54.5056 59.8828C54.5056 60.8045 55.2528 61.5516 56.1744 61.5516Z" fill="#DAC5A7"/>
<path d="M67.0619 61.5516C67.9835 61.5516 68.7306 60.8045 68.7306 59.8828C68.7306 58.9612 67.9835 58.2141 67.0619 58.2141C66.1402 58.2141 65.3931 58.9612 65.3931 59.8828C65.3931 60.8045 66.1402 61.5516 67.0619 61.5516Z" fill="#DAC5A7"/>
<path d="M77.9493 61.5516C78.8709 61.5516 79.6181 60.8045 79.6181 59.8828C79.6181 58.9612 78.8709 58.2141 77.9493 58.2141C77.0277 58.2141 76.2805 58.9612 76.2805 59.8828C76.2805 60.8045 77.0277 61.5516 77.9493 61.5516Z" fill="#DAC5A7"/>
<path d="M45.2869 71C46.2086 71 46.9557 70.2529 46.9557 69.3312C46.9557 68.4096 46.2086 67.6624 45.2869 67.6624C44.3653 67.6624 43.6182 68.4096 43.6182 69.3312C43.6182 70.2529 44.3653 71 45.2869 71Z" fill="#DAC5A7"/>
<path d="M56.1744 71C57.0961 71 57.8432 70.2529 57.8432 69.3312C57.8432 68.4096 57.0961 67.6624 56.1744 67.6624C55.2528 67.6624 54.5056 68.4096 54.5056 69.3312C54.5056 70.2529 55.2528 71 56.1744 71Z" fill="#DAC5A7"/>
<path d="M67.0619 71C67.9835 71 68.7306 70.2529 68.7306 69.3312C68.7306 68.4096 67.9835 67.6624 67.0619 67.6624C66.1402 67.6624 65.3931 68.4096 65.3931 69.3312C65.3931 70.2529 66.1402 71 67.0619 71Z" fill="#DAC5A7"/>
<path d="M77.9493 71C78.8709 71 79.6181 70.2529 79.6181 69.3312C79.6181 68.4096 78.8709 67.6624 77.9493 67.6624C77.0277 67.6624 76.2805 68.4096 76.2805 69.3312C76.2805 70.2529 77.0277 71 77.9493 71Z" fill="#DAC5A7"/>
<path d="M88.8206 42.6468C89.7423 42.6468 90.4894 41.8996 90.4894 40.978C90.4894 40.0563 89.7423 39.3092 88.8206 39.3092C87.899 39.3092 87.1519 40.0563 87.1519 40.978C87.1519 41.8996 87.899 42.6468 88.8206 42.6468Z" fill="#DAC5A7"/>
<path d="M99.7081 42.6468C100.63 42.6468 101.377 41.8996 101.377 40.978C101.377 40.0563 100.63 39.3092 99.7081 39.3092C98.7865 39.3092 98.0393 40.0563 98.0393 40.978C98.0393 41.8996 98.7865 42.6468 99.7081 42.6468Z" fill="#DAC5A7"/>
<path d="M110.595 42.6468C111.517 42.6468 112.264 41.8996 112.264 40.978C112.264 40.0563 111.517 39.3092 110.595 39.3092C109.674 39.3092 108.927 40.0563 108.927 40.978C108.927 41.8996 109.674 42.6468 110.595 42.6468Z" fill="#DAC5A7"/>
<path d="M121.483 42.6468C122.405 42.6468 123.152 41.8996 123.152 40.978C123.152 40.0563 122.405 39.3092 121.483 39.3092C120.561 39.3092 119.814 40.0563 119.814 40.978C119.814 41.8996 120.561 42.6468 121.483 42.6468Z" fill="#DAC5A7"/>
<path d="M88.8206 52.0992C89.7423 52.0992 90.4894 51.3521 90.4894 50.4304C90.4894 49.5088 89.7423 48.7616 88.8206 48.7616C87.899 48.7616 87.1519 49.5088 87.1519 50.4304C87.1519 51.3521 87.899 52.0992 88.8206 52.0992Z" fill="#DAC5A7"/>
<path d="M99.7081 52.0992C100.63 52.0992 101.377 51.3521 101.377 50.4304C101.377 49.5088 100.63 48.7616 99.7081 48.7616C98.7865 48.7616 98.0393 49.5088 98.0393 50.4304C98.0393 51.3521 98.7865 52.0992 99.7081 52.0992Z" fill="#DAC5A7"/>
<path d="M110.595 52.0992C111.517 52.0992 112.264 51.3521 112.264 50.4304C112.264 49.5088 111.517 48.7616 110.595 48.7616C109.674 48.7616 108.927 49.5088 108.927 50.4304C108.927 51.3521 109.674 52.0992 110.595 52.0992Z" fill="#DAC5A7"/>
<path d="M121.483 52.0992C122.405 52.0992 123.152 51.3521 123.152 50.4304C123.152 49.5088 122.405 48.7616 121.483 48.7616C120.561 48.7616 119.814 49.5088 119.814 50.4304C119.814 51.3521 120.561 52.0992 121.483 52.0992Z" fill="#DAC5A7"/>
<path d="M88.8206 61.5516C89.7423 61.5516 90.4894 60.8045 90.4894 59.8828C90.4894 58.9612 89.7423 58.2141 88.8206 58.2141C87.899 58.2141 87.1519 58.9612 87.1519 59.8828C87.1519 60.8045 87.899 61.5516 88.8206 61.5516Z" fill="#DAC5A7"/>
<path d="M99.7081 61.5516C100.63 61.5516 101.377 60.8045 101.377 59.8828C101.377 58.9612 100.63 58.2141 99.7081 58.2141C98.7865 58.2141 98.0393 58.9612 98.0393 59.8828C98.0393 60.8045 98.7865 61.5516 99.7081 61.5516Z" fill="#DAC5A7"/>
<path d="M110.595 61.5516C111.517 61.5516 112.264 60.8045 112.264 59.8828C112.264 58.9612 111.517 58.2141 110.595 58.2141C109.674 58.2141 108.927 58.9612 108.927 59.8828C108.927 60.8045 109.674 61.5516 110.595 61.5516Z" fill="#DAC5A7"/>
<path d="M121.483 61.5516C122.405 61.5516 123.152 60.8045 123.152 59.8828C123.152 58.9612 122.405 58.2141 121.483 58.2141C120.561 58.2141 119.814 58.9612 119.814 59.8828C119.814 60.8045 120.561 61.5516 121.483 61.5516Z" fill="#DAC5A7"/>
<path d="M88.8206 71C89.7423 71 90.4894 70.2529 90.4894 69.3312C90.4894 68.4096 89.7423 67.6624 88.8206 67.6624C87.899 67.6624 87.1519 68.4096 87.1519 69.3312C87.1519 70.2529 87.899 71 88.8206 71Z" fill="#DAC5A7"/>
<path d="M99.7081 71C100.63 71 101.377 70.2529 101.377 69.3312C101.377 68.4096 100.63 67.6624 99.7081 67.6624C98.7865 67.6624 98.0393 68.4096 98.0393 69.3312C98.0393 70.2529 98.7865 71 99.7081 71Z" fill="#DAC5A7"/>
<path d="M110.595 71C111.517 71 112.264 70.2529 112.264 69.3312C112.264 68.4096 111.517 67.6624 110.595 67.6624C109.674 67.6624 108.927 68.4096 108.927 69.3312C108.927 70.2529 109.674 71 110.595 71Z" fill="#DAC5A7"/>
<path d="M121.483 71C122.405 71 123.152 70.2529 123.152 69.3312C123.152 68.4096 122.405 67.6624 121.483 67.6624C120.561 67.6624 119.814 68.4096 119.814 69.3312C119.814 70.2529 120.561 71 121.483 71Z" fill="#DAC5A7"/>
</svg>
