<svg width="115" height="20" viewBox="0 0 115 20" fill="none" xmlns="http://www.w3.org/2000/svg">
<path d="M16.309 18.6948C15.6425 19.1695 11.3664 16.1605 10.5474 16.1539C9.72846 16.1473 5.4042 19.0871 4.74555 18.6017C4.08689 18.1164 5.63536 13.1313 5.38859 12.3526C5.14182 11.5739 1.00161 8.3814 1.26096 7.60677C1.52036 6.83214 6.75348 6.76019 7.41991 6.2855C8.08634 5.81087 9.85185 0.897991 10.6709 0.904548C11.4898 0.911161 13.1755 5.85181 13.8342 6.33716C14.4929 6.82245 19.7242 6.97866 19.971 7.75734C20.2178 8.53601 16.0265 11.6615 15.7671 12.4361C15.5078 13.2108 16.9754 18.2201 16.309 18.6948Z" fill="url(#paint0_linear_356_181)"/>
<g clip-path="url(#clip0_356_181)">
<path d="M39.959 18.6948C39.2926 19.1695 35.0164 16.1605 34.1975 16.1539C33.3785 16.1473 29.0542 19.0871 28.3956 18.6017C27.7369 18.1164 29.2854 13.1313 29.0386 12.3526C28.7918 11.5739 24.6516 8.3814 24.911 7.60677C25.1704 6.83214 30.4035 6.76019 31.0699 6.2855C31.7364 5.81087 33.5019 0.897991 34.3209 0.904548C35.1398 0.911161 36.8256 5.85181 37.4842 6.33716C38.1429 6.82245 43.3742 6.97866 43.621 7.75734C43.8678 8.53601 39.6765 11.6615 39.4171 12.4361C39.1578 13.2108 40.6254 18.2201 39.959 18.6948Z" fill="url(#paint1_linear_356_181)"/>
</g>
<g clip-path="url(#clip1_356_181)">
<path d="M63.5762 18.6948C62.9097 19.1695 58.6336 16.1605 57.8146 16.1539C56.9957 16.1473 52.6714 19.0871 52.0128 18.6017C51.3541 18.1164 52.9026 13.1313 52.6558 12.3526C52.409 11.5739 48.2688 8.3814 48.5282 7.60677C48.7876 6.83214 54.0207 6.76019 54.6871 6.2855C55.3536 5.81087 57.1191 0.897991 57.9381 0.904548C58.757 0.911161 60.4428 5.85181 61.1014 6.33716C61.7601 6.82245 66.9914 6.97866 67.2382 7.75734C67.485 8.53601 63.2937 11.6615 63.0343 12.4361C62.775 13.2108 64.2426 18.2201 63.5762 18.6948Z" fill="url(#paint2_linear_356_181)"/>
</g>
<g clip-path="url(#clip2_356_181)">
<path d="M87.2263 18.6948C86.5599 19.1695 82.2838 16.1605 81.4648 16.1539C80.6458 16.1473 76.3216 19.0871 75.6629 18.6017C75.0042 18.1164 76.5527 13.1313 76.3059 12.3526C76.0592 11.5739 71.919 8.3814 72.1783 7.60677C72.4377 6.83214 77.6708 6.76019 78.3373 6.2855C79.0037 5.81087 80.7692 0.897991 81.5882 0.904548C82.4072 0.911161 84.0929 5.85181 84.7516 6.33716C85.4102 6.82245 90.6416 6.97866 90.8884 7.75734C91.1352 8.53601 86.9439 11.6615 86.6845 12.4361C86.4251 13.2108 87.8928 18.2201 87.2263 18.6948Z" fill="url(#paint3_linear_356_181)"/>
</g>
<g clip-path="url(#clip3_356_181)">
<path d="M110.84 18.6948C110.173 19.1695 105.897 16.1605 105.078 16.1539C104.259 16.1473 99.9351 19.0871 99.2764 18.6017C98.6178 18.1164 100.166 13.1313 99.9195 12.3526C99.6727 11.5739 95.5325 8.3814 95.7918 7.60677C96.0512 6.83214 101.284 6.76019 101.951 6.2855C102.617 5.81087 104.383 0.897991 105.202 0.904548C106.021 0.911161 107.706 5.85181 108.365 6.33716C109.024 6.82245 114.255 6.97866 114.502 7.75734C114.749 8.53601 110.557 11.6615 110.298 12.4361C110.039 13.2108 111.506 18.2201 110.84 18.6948Z" fill="#39342E"/>
<path d="M105.08 15.9039L105.08 15.9039C105.237 15.9051 105.434 15.9722 105.63 16.0537C105.837 16.1398 106.081 16.26 106.346 16.3989C106.711 16.5901 107.128 16.8232 107.556 17.0623C107.749 17.1701 107.944 17.2791 108.137 17.386C108.765 17.7331 109.377 18.0591 109.871 18.2688C110.119 18.3741 110.326 18.4452 110.484 18.4771C110.563 18.4931 110.62 18.4973 110.66 18.495C110.678 18.4939 110.688 18.4917 110.694 18.4901C110.697 18.4854 110.703 18.476 110.71 18.4596C110.724 18.4236 110.739 18.3682 110.749 18.2888C110.77 18.1297 110.77 17.9117 110.751 17.6437C110.712 17.1097 110.601 16.4265 110.475 15.7218C110.437 15.5048 110.397 15.2856 110.357 15.0687C110.269 14.5878 110.183 14.1187 110.12 13.7123C110.074 13.4168 110.039 13.1474 110.025 12.9245C110.011 12.7137 110.011 12.5054 110.061 12.3568L110.061 12.3567C110.111 12.2081 110.236 12.0414 110.374 11.8813C110.52 11.712 110.71 11.5174 110.925 11.3086C111.22 11.0214 111.571 10.6979 111.931 10.3662C112.094 10.2167 112.258 10.0655 112.42 9.91514C112.945 9.42707 113.445 8.94716 113.797 8.54347C113.974 8.34085 114.106 8.16669 114.185 8.02694C114.225 7.95721 114.246 7.90414 114.256 7.8665C114.261 7.84977 114.262 7.83906 114.262 7.83325C114.259 7.82865 114.251 7.82053 114.238 7.80923C114.208 7.78397 114.16 7.75295 114.087 7.71849C113.942 7.64944 113.733 7.58231 113.472 7.51793C112.95 7.38966 112.265 7.28344 111.554 7.18486C111.335 7.15449 111.113 7.12483 110.894 7.0955C110.408 7.03044 109.934 6.96699 109.527 6.90107C109.231 6.85315 108.964 6.80283 108.746 6.74794C108.541 6.69604 108.343 6.63136 108.217 6.53843L108.217 6.53842C108.091 6.44542 107.97 6.27528 107.86 6.09482C107.744 5.90398 107.617 5.66354 107.484 5.39551C107.301 5.02683 107.101 4.5937 106.896 4.14956C106.804 3.94938 106.71 3.74696 106.617 3.5472C106.314 2.89846 106.011 2.27596 105.735 1.81671C105.596 1.58622 105.471 1.40754 105.362 1.28924C105.308 1.23023 105.264 1.19313 105.231 1.17209C105.215 1.16235 105.205 1.15781 105.2 1.15578C105.194 1.15773 105.184 1.1621 105.169 1.17161C105.135 1.19211 105.091 1.2285 105.035 1.28664C104.925 1.40317 104.796 1.57981 104.654 1.80804C104.371 2.26279 104.058 2.88033 103.744 3.5241C103.647 3.72237 103.55 3.92329 103.455 4.12199C103.243 4.56274 103.036 4.99255 102.847 5.3582C102.71 5.62406 102.579 5.86242 102.46 6.05136C102.347 6.23002 102.224 6.39819 102.096 6.48914M105.08 15.9039L101.951 6.2855M105.08 15.9039C104.924 15.9026 104.725 15.9665 104.528 16.0448C104.32 16.1276 104.074 16.2438 103.807 16.3785C103.438 16.5637 103.018 16.7901 102.586 17.0223C102.392 17.127 102.195 17.2329 102 17.3366C101.367 17.6736 100.749 17.9896 100.252 18.1914C100.002 18.2927 99.794 18.3605 99.6356 18.3898C99.5566 18.4045 99.4991 18.4078 99.4599 18.4049C99.442 18.4035 99.4311 18.4011 99.4255 18.3995M105.08 15.9039L99.4255 18.3995M102.096 6.48914L101.951 6.2855M102.096 6.48914C102.096 6.48913 102.096 6.48913 102.096 6.48913L101.951 6.2855M102.096 6.48914C101.968 6.58004 101.769 6.64152 101.563 6.69012C101.345 6.74151 101.076 6.78751 100.78 6.83067C100.372 6.89004 99.8969 6.94585 99.4099 7.00309C99.1904 7.02889 98.9684 7.05497 98.749 7.08181C98.0366 7.16894 97.3491 7.2641 96.8257 7.38397C96.563 7.44413 96.3537 7.50789 96.2072 7.5746C96.1341 7.60788 96.0851 7.63812 96.0548 7.6629C96.0413 7.674 96.0339 7.68201 96.0302 7.68655M101.951 6.2855C101.67 6.48578 100.576 6.61436 99.3851 6.75427C97.7539 6.94598 95.9418 7.15896 95.7918 7.60677M96.0302 7.68655C96.0301 7.68282 96.0303 7.68111 96.0302 7.68111C96.0302 7.68111 96.03 7.6829 96.0289 7.68614L95.7918 7.60677M96.0302 7.68655C96.0304 7.69236 96.0315 7.70308 96.0356 7.71989C96.0448 7.75768 96.0657 7.8111 96.1041 7.88145C96.181 8.02246 96.3098 8.19872 96.4836 8.40416C96.8297 8.81348 97.3219 9.30137 97.839 9.79783C97.9982 9.95072 98.16 10.1045 98.3199 10.2567C98.6747 10.5941 99.0207 10.9232 99.3112 11.2152C99.5223 11.4274 99.7093 11.625 99.8526 11.7967C99.988 11.959 100.11 12.1277 100.158 12.2771C100.205 12.4265 100.202 12.6348 100.185 12.8453C100.167 13.0679 100.127 13.3368 100.077 13.6315C100.007 14.0369 99.9139 14.5045 99.818 14.9839C99.7748 15.2001 99.7311 15.4187 99.6889 15.635C99.5518 16.3376 99.4302 17.0189 99.3828 17.5522C99.359 17.8199 99.3551 18.0379 99.3734 18.1973C99.3826 18.2768 99.3963 18.3325 99.4105 18.3687C99.417 18.3852 99.4224 18.3946 99.4255 18.3995M96.0302 7.68655C96.0279 7.68944 96.027 7.69092 96.027 7.69092C96.027 7.69091 96.0278 7.68935 96.0289 7.68615L95.7918 7.60677M95.7918 7.60677L99.4255 18.3995" stroke="#0A1013" stroke-opacity="0.1" stroke-width="0.5"/>
<path d="M110.84 18.6949C110.174 19.1696 105.897 16.1606 105.078 16.154C104.259 16.1474 99.9352 19.0872 99.2766 18.6019C98.6179 18.1165 100.166 13.1314 99.9196 12.3527C99.6728 11.574 95.5326 8.38152 95.792 7.60689C96.0514 6.83226 101.284 6.76031 101.951 6.28562C102.617 5.811 104.383 0.898113 105.202 0.90467C106.021 0.911283 107.707 5.85193 108.365 6.33728C109.024 6.82257 114.255 6.97878 114.502 7.75746C114.749 8.53614 110.558 11.6616 110.298 12.4362C110.039 13.2109 111.506 18.2202 110.84 18.6949Z" fill="url(#paint4_linear_356_181)"/>
</g>
<defs>
<linearGradient id="paint0_linear_356_181" x1="1.24929" y1="9.82507" x2="19.9815" y2="9.82507" gradientUnits="userSpaceOnUse">
<stop stop-color="#FFD500"/>
<stop offset="1" stop-color="#FFB803"/>
</linearGradient>
<linearGradient id="paint1_linear_356_181" x1="24.8993" y1="9.82507" x2="43.6315" y2="9.82507" gradientUnits="userSpaceOnUse">
<stop stop-color="#FFD500"/>
<stop offset="1" stop-color="#FFB803"/>
</linearGradient>
<linearGradient id="paint2_linear_356_181" x1="48.5165" y1="9.82507" x2="67.2487" y2="9.82507" gradientUnits="userSpaceOnUse">
<stop stop-color="#FFD500"/>
<stop offset="1" stop-color="#FFB803"/>
</linearGradient>
<linearGradient id="paint3_linear_356_181" x1="72.1666" y1="9.82507" x2="90.8988" y2="9.82507" gradientUnits="userSpaceOnUse">
<stop stop-color="#FFD500"/>
<stop offset="1" stop-color="#FFB803"/>
</linearGradient>
<linearGradient id="paint4_linear_356_181" x1="95.7803" y1="9.82519" x2="114.512" y2="9.82519" gradientUnits="userSpaceOnUse">
<stop stop-color="#FFD500"/>
<stop offset="1" stop-color="#FFB803"/>
</linearGradient>
<clipPath id="clip0_356_181">
<rect width="20" height="20" fill="white" transform="translate(23.65)"/>
</clipPath>
<clipPath id="clip1_356_181">
<rect width="20" height="20" fill="white" transform="translate(47.2672)"/>
</clipPath>
<clipPath id="clip2_356_181">
<rect width="20" height="20" fill="white" transform="translate(70.9174)"/>
</clipPath>
<clipPath id="clip3_356_181">
<rect width="20" height="20" fill="white" transform="translate(94.5309)"/>
</clipPath>
</defs>
</svg>
