<svg width="188" height="188" viewBox="0 0 188 188" fill="none" xmlns="http://www.w3.org/2000/svg">
<g filter="url(#filter0_b_3_176)">
<circle cx="94" cy="94" r="93.5415" stroke="#FFF5E7" stroke-opacity="0.3" stroke-width="0.917073"/>
</g>
<circle opacity="0.8" cx="94" cy="94" r="12" fill="#FFF5E7"/>
<g opacity="0.5">
<path d="M83.3098 33.9709L81.9792 21.4413L87.1342 20.8939C88.244 20.7761 89.2117 20.8543 90.0373 21.1287C90.8748 21.4017 91.5438 21.8496 92.0444 22.4722C92.5449 23.0948 92.844 23.8656 92.9415 24.7844C93.0391 25.7032 92.9086 26.5196 92.55 27.2335C92.1914 27.9473 91.6313 28.5257 90.8698 28.9686C90.1203 29.4102 89.1906 29.6899 88.0808 29.8078L84.2146 30.2184L85.1368 29.0163L85.6367 33.7238L83.3098 33.9709ZM85.1634 29.2669L84.0055 28.2494L87.7644 27.8503C88.7906 27.7413 89.5374 27.4448 90.0049 26.9607C90.4831 26.4634 90.6804 25.821 90.5967 25.0334C90.5118 24.2339 90.184 23.6472 89.6134 23.2734C89.0546 22.8983 88.2622 22.7653 87.2359 22.8742L83.4771 23.2734L84.3936 22.0176L85.1634 29.2669Z" fill="#FFF5E7"/>
<path d="M98.2867 33.1986L100.051 20.7227L105.184 21.4488C106.289 21.6051 107.209 21.9169 107.942 22.3843C108.688 22.8533 109.228 23.4508 109.561 24.1767C109.895 24.9025 109.997 25.7229 109.868 26.6378C109.738 27.5527 109.413 28.3126 108.891 28.9175C108.371 29.5105 107.687 29.9289 106.841 30.1727C106.008 30.4064 105.039 30.4451 103.934 30.2888L100.084 29.7443L101.267 28.8389L100.604 33.5263L98.2867 33.1986ZM106.449 34.3531L103.935 29.38L106.412 29.7304L108.945 34.7061L106.449 34.3531ZM101.231 29.0885L100.354 27.8372L104.097 28.3666C105.118 28.5112 105.916 28.3997 106.489 28.0324C107.074 27.6667 107.422 27.0918 107.533 26.3076C107.645 25.5115 107.471 24.8626 107.008 24.3609C106.558 23.8609 105.822 23.5387 104.8 23.3941L101.057 22.8647L102.252 21.8703L101.231 29.0885Z" fill="#FFF5E7"/>
<path d="M118.345 38.49C117.439 38.107 116.668 37.6052 116.031 36.9845C115.394 36.3637 114.906 35.669 114.567 34.9002C114.232 34.1204 114.061 33.3058 114.056 32.4565C114.054 31.5962 114.236 30.735 114.6 29.8728C114.964 29.0106 115.453 28.2856 116.066 27.6979C116.684 27.0991 117.387 26.6536 118.175 26.3612C118.967 26.0578 119.808 25.9179 120.697 25.9418C121.586 25.9656 122.478 26.1667 123.373 26.545C124.28 26.928 125.046 27.4275 125.671 28.0436C126.308 28.6643 126.793 29.3646 127.128 30.1444C127.468 30.9132 127.638 31.7277 127.639 32.5881C127.645 33.4373 127.466 34.2931 127.102 35.1552C126.738 36.0174 126.247 36.7479 125.629 37.3467C125.011 37.9455 124.308 38.391 123.52 38.6834C122.732 38.9758 121.894 39.1101 121.005 39.0862C120.127 39.0671 119.241 38.8684 118.345 38.49ZM119.128 36.5928C119.713 36.8404 120.297 36.9698 120.879 36.981C121.46 36.9922 122.01 36.8925 122.529 36.6818C123.053 36.4601 123.517 36.1481 123.921 35.7458C124.341 35.3372 124.678 34.8344 124.93 34.2375C125.182 33.6406 125.306 33.0546 125.301 32.4795C125.313 31.898 125.213 31.3478 125.002 30.8289C124.796 30.2989 124.487 29.8294 124.073 29.4202C123.66 29.0111 123.16 28.6827 122.574 28.4352C121.989 28.1876 121.405 28.0583 120.823 28.047C120.253 28.0405 119.7 28.1457 119.166 28.3628C118.647 28.5734 118.177 28.8831 117.757 29.2918C117.353 29.694 117.024 30.1936 116.772 30.7905C116.525 31.3764 116.395 31.9601 116.384 32.5416C116.384 33.1277 116.487 33.6858 116.693 34.2157C116.903 34.7346 117.215 35.1987 117.629 35.6078C118.042 36.017 118.542 36.3453 119.128 36.5928Z" fill="#FFF5E7"/>
<path d="M133.708 39.2957L138.723 43.0779L137.531 44.6588L132.516 40.8766L133.708 39.2957ZM129.769 44.8475L127.901 43.4387L135.487 33.3783L142.831 38.9161L141.65 40.4827L136.174 36.3537L129.769 44.8475Z" fill="#FFF5E7"/>
<path d="M145.184 48.9817L149.209 53.7814L147.733 55.019L143.708 50.2193L145.184 48.9817ZM141.162 52.5895L145.731 58.0374L144.227 59.2981L138.155 52.0572L147.81 43.9609L153.72 51.0087L152.217 52.2694L147.81 47.0146L141.162 52.5895Z" fill="#FFF5E7"/>
<path d="M148.274 67.0204C147.827 66.1435 147.523 65.2415 147.36 64.3142C147.208 63.3815 147.211 62.5792 147.367 61.9072L149.354 61.8041C149.23 62.4329 149.219 63.1387 149.322 63.9215C149.424 64.7043 149.652 65.4432 150.006 66.1383C150.305 66.7264 150.612 67.1696 150.925 67.4679C151.239 67.7661 151.546 67.9463 151.847 68.0085C152.159 68.0653 152.454 68.0228 152.732 67.8813C153.074 67.707 153.284 67.4452 153.362 67.0958C153.45 66.7409 153.453 66.3357 153.369 65.8802C153.301 65.4299 153.198 64.9369 153.06 64.4012C152.928 63.8763 152.808 63.3378 152.702 62.7858C152.612 62.2391 152.579 61.7107 152.602 61.2007C152.641 60.6959 152.791 60.2225 153.051 59.7806C153.31 59.3386 153.74 58.9652 154.338 58.6602C154.948 58.3499 155.586 58.2271 156.252 58.292C156.934 58.3621 157.593 58.6525 158.23 59.163C158.883 59.6788 159.471 60.45 159.994 61.4765C160.337 62.1502 160.592 62.8621 160.758 63.6123C160.925 64.3624 160.973 65.0651 160.903 65.7203L158.948 65.8876C158.991 65.2325 158.946 64.6023 158.813 63.9968C158.691 63.3859 158.504 62.8345 158.254 62.3426C157.96 61.7652 157.65 61.33 157.326 61.0372C157.008 60.7551 156.692 60.5857 156.381 60.529C156.074 60.4829 155.777 60.5334 155.488 60.6804C155.146 60.8547 154.928 61.1139 154.834 61.458C154.756 61.8074 154.756 62.2046 154.835 62.6494C154.918 63.105 155.024 63.6033 155.151 64.1444C155.289 64.6801 155.409 65.2185 155.509 65.7598C155.615 66.3118 155.654 66.8375 155.626 67.3368C155.602 67.8468 155.458 68.3175 155.193 68.7487C154.933 69.1907 154.51 69.5614 153.921 69.8609C153.323 70.1658 152.682 70.2832 152 70.2131C151.334 70.1482 150.674 69.8579 150.021 69.3421C149.379 68.8209 148.796 68.047 148.274 67.0204Z" fill="#FFF5E7"/>
<path d="M152.874 79.557C152.63 78.6037 152.53 77.6569 152.574 76.7166C152.63 75.7733 152.807 74.9908 153.107 74.3692L155.069 74.7031C154.81 75.2895 154.645 75.9759 154.574 76.7621C154.502 77.5483 154.564 78.3193 154.757 79.0749C154.921 79.7143 155.123 80.2138 155.364 80.5733C155.604 80.9329 155.865 81.1759 156.145 81.3024C156.436 81.4259 156.733 81.4489 157.036 81.3716C157.408 81.2763 157.67 81.0668 157.822 80.7429C157.986 80.416 158.077 80.0211 158.095 79.5582C158.127 79.104 158.135 78.6004 158.117 78.0476C158.103 77.5063 158.104 76.9547 158.121 76.3929C158.153 75.8398 158.236 75.3169 158.37 74.8242C158.518 74.3403 158.768 73.911 159.118 73.5365C159.468 73.162 159.968 72.8914 160.619 72.7248C161.282 72.5552 161.931 72.5748 162.567 72.7837C163.217 73.0013 163.797 73.4288 164.307 74.0662C164.832 74.7123 165.237 75.5933 165.523 76.7094C165.71 77.4417 165.803 78.1921 165.802 78.9605C165.8 79.7289 165.693 80.4251 165.482 81.0491L163.537 80.785C163.723 80.1553 163.817 79.5304 163.819 78.9105C163.833 78.2876 163.772 77.7087 163.635 77.174C163.474 76.5462 163.268 76.0541 163.015 75.6975C162.766 75.3525 162.496 75.1183 162.204 74.9948C161.915 74.8829 161.614 74.8671 161.3 74.9475C160.928 75.0427 160.658 75.248 160.491 75.5632C160.339 75.8872 160.252 76.2747 160.231 76.726C160.214 77.1888 160.208 77.6982 160.214 78.2541C160.232 78.807 160.23 79.3585 160.21 79.9087C160.193 80.4705 160.116 80.9919 159.979 81.4729C159.845 81.9655 159.601 82.3933 159.248 82.7562C158.898 83.1307 158.403 83.3998 157.764 83.5634C157.113 83.7301 156.462 83.7046 155.812 83.4871C155.176 83.2782 154.596 82.8507 154.072 82.2046C153.559 81.5555 153.159 80.673 152.874 79.557Z" fill="#FFF5E7"/>
<path d="M154.611 89.0468L167.18 88.1768L167.342 90.5112L154.772 91.3813L154.611 89.0468Z" fill="#FFF5E7"/>
<path d="M153.937 103.308C154.072 102.333 154.358 101.458 154.793 100.683C155.228 99.9073 155.773 99.2562 156.428 98.7295C157.095 98.2044 157.837 97.8292 158.656 97.604C159.487 97.3804 160.366 97.3331 161.293 97.4621C162.22 97.5912 163.047 97.8759 163.773 98.3162C164.511 98.7582 165.123 99.322 165.609 100.008C166.107 100.695 166.46 101.471 166.666 102.336C166.873 103.2 166.91 104.114 166.775 105.077C166.64 106.051 166.355 106.92 165.922 107.684C165.487 108.459 164.936 109.11 164.269 109.635C163.614 110.161 162.871 110.537 162.041 110.76C161.222 110.985 160.349 111.034 159.422 110.905C158.495 110.775 157.662 110.49 156.924 110.048C156.186 109.606 155.574 109.042 155.088 108.357C154.602 107.671 154.255 106.896 154.048 106.031C153.84 105.178 153.803 104.27 153.937 103.308ZM155.972 103.573C155.884 104.203 155.91 104.8 156.049 105.365C156.189 105.929 156.427 106.435 156.765 106.882C157.115 107.33 157.536 107.698 158.029 107.985C158.532 108.285 159.105 108.48 159.747 108.569C160.389 108.658 160.987 108.627 161.541 108.474C162.106 108.334 162.612 108.095 163.058 107.758C163.517 107.422 163.891 107.001 164.179 106.496C164.467 105.991 164.655 105.424 164.743 104.794C164.831 104.164 164.805 103.567 164.665 103.002C164.524 102.449 164.28 101.943 163.932 101.482C163.594 101.036 163.174 100.662 162.67 100.362C162.177 100.075 161.61 99.887 160.968 99.7976C160.338 99.7099 159.741 99.7358 159.176 99.8753C158.61 100.027 158.097 100.27 157.639 100.606C157.192 100.944 156.824 101.365 156.536 101.87C156.247 102.375 156.059 102.943 155.972 103.573Z" fill="#FFF5E7"/>
<path d="M151.731 113.776L163.316 118.73L162.559 120.501L150.532 123.952L150.907 123.075L159.828 126.889L158.915 129.024L147.329 124.07L148.087 122.299L160.114 118.848L159.739 119.725L150.818 115.911L151.731 113.776Z" fill="#FFF5E7"/>
<path d="M145.799 126.531L152.315 138.715L150.908 140.539L137.457 137.35L138.952 135.411L150.925 138.484L150.353 139.225L144.326 128.441L145.799 126.531ZM146.515 130.378L147.584 131.998L143.429 137.386L141.591 136.764L146.515 130.378Z" fill="#FFF5E7"/>
<path d="M134.819 139.299L142.811 149.04L141.002 150.524L134.266 142.314L129.173 146.492L127.917 144.962L134.819 139.299Z" fill="#FFF5E7"/>
<path d="M112.496 151.892C114.134 151.342 115.574 151.371 116.817 151.979C118.048 152.591 118.955 153.767 119.54 155.507L121.804 162.247L119.586 162.992L117.351 156.338C116.938 155.109 116.376 154.304 115.666 153.923C114.944 153.545 114.1 153.518 113.133 153.843C112.166 154.168 111.514 154.697 111.178 155.43C110.842 156.163 110.881 157.144 111.293 158.373L113.529 165.027L111.345 165.761L109.081 159.021C108.496 157.281 108.515 155.793 109.138 154.558C109.75 153.327 110.87 152.439 112.496 151.892Z" fill="#FFF5E7"/>
<path d="M102.225 154.416L103.772 166.92L101.45 167.208L99.9024 154.703L102.225 154.416Z" fill="#FFF5E7"/>
<path d="M88.208 153.006L79.7126 168.837L77.721 168.524L86.2164 152.693L88.208 153.006Z" fill="#FFF5E7"/>
<path d="M64.501 147.203C66.0236 148.02 66.9885 149.09 67.3958 150.412C67.7925 151.728 67.5567 153.195 66.6884 154.812L63.3259 161.077L61.2641 159.97L64.5841 153.785C65.197 152.643 65.3994 151.683 65.1911 150.904C64.9722 150.119 64.4134 149.485 63.5147 149.003C62.616 148.52 61.7844 148.408 61.02 148.665C60.2555 148.922 59.5668 149.621 58.9539 150.763L55.6339 156.948L53.6038 155.859L56.9664 149.594C57.8347 147.976 58.9322 146.972 60.2589 146.581C61.575 146.184 62.9891 146.392 64.501 147.203Z" fill="#FFF5E7"/>
<path d="M56.8297 142.673L47.9827 144.499L49.1707 143.195L48.1574 151.817L46.2015 150.035L46.9363 143.643L47.7467 144.357L41.4647 145.719L39.5886 144.01L47.9682 142.27L46.8286 143.52L47.8352 134.478L49.831 136.296L49.0243 143.061L48.2393 142.346L54.8605 140.879L56.8297 142.673Z" fill="#FFF5E7"/>
<path d="M41.2764 125.044L29.9634 130.592L27.5383 125.647C26.936 124.418 26.6446 123.225 26.6643 122.066C26.684 120.907 26.9872 119.862 27.574 118.933C28.1608 118.004 29.0252 117.259 30.1673 116.699C31.2986 116.144 32.4166 115.917 33.5214 116.017C34.6154 116.122 35.6266 116.521 36.5551 117.215C37.4835 117.909 38.2489 118.871 38.8512 120.099L41.2764 125.044ZM38.4683 123.815L37.121 121.068C36.7036 120.217 36.1828 119.563 35.5584 119.108C34.9287 118.641 34.2411 118.384 33.4955 118.335C32.7446 118.275 31.9813 118.436 31.2055 118.816C30.419 119.202 29.8248 119.707 29.4228 120.332C29.0048 120.951 28.7874 121.653 28.7706 122.436C28.7485 123.209 28.9462 124.021 29.3636 124.872L30.7109 127.619L38.4683 123.815Z" fill="#FFF5E7"/>
<path d="M27.4927 109.87L26.1893 103.744L28.0731 103.343L29.3765 109.47L27.4927 109.87ZM32.737 108.571L31.2576 101.616L33.1766 101.208L35.143 110.451L22.8188 113.073L20.9049 104.076L22.8239 103.668L24.2509 110.376L32.737 108.571Z" fill="#FFF5E7"/>
<path d="M33.2232 92.4883C33.2062 93.4722 33.052 94.4117 32.7605 95.3068C32.4571 96.2017 32.0788 96.9093 31.6258 97.4295L29.822 96.5883C30.2266 96.0912 30.5673 95.473 30.8441 94.7336C31.1209 93.9943 31.2661 93.2347 31.2795 92.4548C31.2909 91.7949 31.2281 91.2597 31.0912 90.8493C30.9542 90.4389 30.7674 90.1356 30.5308 89.9395C30.2821 89.7432 30.0018 89.6424 29.6899 89.637C29.3059 89.6304 28.9976 89.7631 28.7649 90.0351C28.5201 90.3069 28.328 90.6636 28.1883 91.1053C28.0369 91.5347 27.8965 92.0184 27.7672 92.5562C27.6381 93.0821 27.491 93.6136 27.3257 94.1509C27.1486 94.6759 26.9302 95.1582 26.6706 95.5978C26.3992 96.0252 26.0451 96.3731 25.6084 96.6416C25.1718 96.9101 24.6175 97.0386 23.9456 97.027C23.2617 97.0152 22.6409 96.8245 22.0831 96.4548C21.5136 96.0729 21.0673 95.5071 20.7442 94.7574C20.4093 93.9955 20.2518 93.0387 20.2717 91.8869C20.2847 91.131 20.3936 90.3827 20.5984 89.6422C20.8032 88.9016 21.0904 88.2584 21.4598 87.7127L23.2648 88.482C22.9192 89.0401 22.6632 89.6178 22.4968 90.215C22.3185 90.812 22.2246 91.3865 22.2151 91.9384C22.2039 92.5863 22.2728 93.1156 22.4217 93.5262C22.5709 93.9248 22.7698 94.2223 23.0184 94.4186C23.2673 94.6029 23.5537 94.6979 23.8776 94.7035C24.2616 94.7101 24.5758 94.5835 24.8203 94.3237C25.053 94.0517 25.2391 93.7008 25.3785 93.2712C25.5182 92.8295 25.6587 92.3398 25.7999 91.8022C25.9292 91.2644 26.0764 90.7328 26.2415 90.2076C26.4068 89.6704 26.6192 89.1879 26.8786 88.7604C27.1382 88.3208 27.4863 87.9727 27.9227 87.7162C28.3594 87.4477 28.9077 87.3191 29.5676 87.3305C30.2395 87.3421 30.8602 87.5388 31.4297 87.9207C31.9874 88.2904 32.4338 88.8562 32.7687 89.6181C33.0916 90.3798 33.2431 91.3365 33.2232 92.4883Z" fill="#FFF5E7"/>
<path d="M34.058 82.8769L21.706 80.3892L22.168 78.0953L34.52 80.5829L34.058 82.8769Z" fill="#FFF5E7"/>
<path d="M38.4795 69.2631C38.1025 70.172 37.6112 70.9491 37.0058 71.5943C36.3939 72.2239 35.7047 72.711 34.9381 73.0556C34.1605 73.3957 33.3416 73.5691 32.4813 73.576C31.621 73.5829 30.7585 73.4071 29.894 73.0485C29.0294 72.6898 28.2957 72.2036 27.6929 71.5898C27.09 70.976 26.6398 70.2761 26.3423 69.4901C26.0382 68.6885 25.9007 67.8455 25.9298 66.9611C25.9477 66.0721 26.1452 65.1732 26.5222 64.2643C26.9314 63.2778 27.46 62.4577 28.1079 61.8041C28.7603 61.1393 29.5096 60.6641 30.3556 60.3785L31.1202 62.2936C30.4772 62.5595 29.9401 62.9148 29.5088 63.3595C29.071 63.7885 28.7211 64.3189 28.459 64.9507C28.2062 65.5604 28.0714 66.1671 28.0549 66.7708C28.0383 67.3745 28.1347 67.9407 28.3442 68.4692C28.5536 68.9978 28.8641 69.4709 29.2755 69.8884C29.6916 70.2948 30.1989 70.6221 30.7974 70.8704C31.3849 71.1141 31.9694 71.2396 32.5509 71.247C33.1371 71.2433 33.6967 71.1312 34.2299 70.9106C34.752 70.6855 35.2186 70.3593 35.6296 69.9322C36.0406 69.5051 36.3749 68.9812 36.6323 68.3605C36.8714 67.7841 37.0126 67.1931 37.056 66.5875C37.0928 65.9662 36.9962 65.322 36.7663 64.655L38.8894 64.0936C39.1242 64.9056 39.2013 65.769 39.1206 66.6839C39.0334 67.5831 38.8197 68.4428 38.4795 69.2631ZM37.7584 66.0214L33.4023 64.2145L34.2506 62.1695L38.8894 64.0936L37.7584 66.0214Z" fill="#FFF5E7"/>
<path d="M42.5111 61.1144L32.4499 53.5294L33.6093 51.9914L46.1133 51.5221L45.539 52.2839L37.7919 46.4434L39.1897 44.5893L49.2509 52.1743L48.0915 53.7122L35.5875 54.1815L36.1618 53.4198L43.9089 59.2602L42.5111 61.1144Z" fill="#FFF5E7"/>
<path d="M49.8174 41.9592L54.6941 38.0278L55.9029 39.5272L51.0262 43.4586L49.8174 41.9592ZM53.3468 46.0502L58.882 41.5878L60.1134 43.1152L52.7564 49.0463L44.8483 39.2371L52.0091 33.4641L53.2405 34.9916L47.9015 39.2958L53.3468 46.0502Z" fill="#FFF5E7"/>
<path d="M64.2563 40.7366L58.9046 29.3297L63.5977 27.1278C64.608 26.6538 65.5482 26.4116 66.4181 26.4011C67.2989 26.3855 68.0775 26.5902 68.754 27.015C69.4306 27.4399 69.965 28.0706 70.3575 28.9071C70.75 29.7436 70.8934 30.5578 70.7877 31.3497C70.6769 32.1307 70.3341 32.8549 69.7591 33.5223C69.1899 34.1737 68.4001 34.7365 67.3898 35.2105L63.8699 36.8619L64.364 35.457L66.3747 39.7428L64.2563 40.7366ZM71.7197 37.2351L66.8935 34.4492L69.1586 33.3865L74.0011 36.1647L71.7197 37.2351ZM64.471 35.6851L63.0519 35.1182L66.474 33.5127C67.4083 33.0744 68.0147 32.5446 68.2932 31.9235C68.5827 31.2973 68.5592 30.6257 68.2228 29.9087C67.8813 29.1808 67.3798 28.7334 66.7183 28.5666C66.0677 28.3947 65.2752 28.5279 64.3409 28.9662L60.9188 30.5717L61.3747 29.0854L64.471 35.6851Z" fill="#FFF5E7"/>
<path d="M84.9654 29.7089L84.7634 27.8479L89.6845 27.3138L89.8865 29.1749L84.9654 29.7089Z" fill="#FFF5E7"/>
</g>
<defs>
<filter id="filter0_b_3_176" x="-45.8537" y="-45.8537" width="279.707" height="279.707" filterUnits="userSpaceOnUse" color-interpolation-filters="sRGB">
<feFlood flood-opacity="0" result="BackgroundImageFix"/>
<feGaussianBlur in="BackgroundImageFix" stdDeviation="22.9268"/>
<feComposite in2="SourceAlpha" operator="in" result="effect1_backgroundBlur_3_176"/>
<feBlend mode="normal" in="SourceGraphic" in2="effect1_backgroundBlur_3_176" result="shape"/>
</filter>
</defs>
</svg>
