<svg width="60" height="48" viewBox="0 0 60 48" fill="none" xmlns="http://www.w3.org/2000/svg">
<path d="M2.58601 25.4754C2.21107 25.1003 2.00044 24.5917 2.00044 24.0614C2.00044 23.531 2.21107 23.0224 2.58601 22.6474L14.586 10.6474C14.9632 10.283 15.4684 10.0815 15.9928 10.086C16.5172 10.0906 17.0188 10.3009 17.3896 10.6717C17.7605 11.0425 17.9708 11.5442 17.9754 12.0686C17.9799 12.593 17.7783 13.0982 17.414 13.4754L8.82802 22.0614L56.5 22.0614C57.0304 22.0614 57.5391 22.2721 57.9142 22.6472C58.2893 23.0222 58.5 23.5309 58.5 24.0614C58.5 24.5918 58.2893 25.1005 57.9142 25.4756C57.5391 25.8507 57.0304 26.0614 56.5 26.0614L8.82802 26.0614L17.414 34.6474C17.7783 35.0246 17.9799 35.5298 17.9754 36.0542C17.9708 36.5786 17.7605 37.0802 17.3896 37.451C17.0188 37.8218 16.5172 38.0322 15.9928 38.0367C15.4684 38.0413 14.9632 37.8397 14.586 37.4754L2.58601 25.4754Z" fill="#DAC5A7"/>
</svg>
