<svg width="60" height="48" viewBox="0 0 60 48" fill="none" xmlns="http://www.w3.org/2000/svg">
<path d="M57.414 25.4754C57.7889 25.1003 57.9996 24.5917 57.9996 24.0614C57.9996 23.531 57.7889 23.0224 57.414 22.6474L45.414 10.6474C45.0368 10.283 44.5316 10.0815 44.0072 10.086C43.4828 10.0906 42.9812 10.3009 42.6104 10.6717C42.2395 11.0425 42.0292 11.5442 42.0246 12.0686C42.0201 12.593 42.2217 13.0982 42.586 13.4754L51.172 22.0614L3.5 22.0614C2.96957 22.0614 2.46086 22.2721 2.08579 22.6472C1.71071 23.0222 1.5 23.5309 1.5 24.0614C1.5 24.5918 1.71071 25.1005 2.08579 25.4756C2.46086 25.8507 2.96957 26.0614 3.5 26.0614L51.172 26.0614L42.586 34.6474C42.2217 35.0246 42.0201 35.5298 42.0246 36.0542C42.0292 36.5786 42.2395 37.0802 42.6104 37.451C42.9812 37.8218 43.4828 38.0322 44.0072 38.0367C44.5316 38.0413 45.0368 37.8397 45.414 37.4754L57.414 25.4754Z" fill="#DAC5A7"/>
</svg>
